<svg width="17" height="17" viewBox="0 0 17 17" fill="none" xmlns="http://www.w3.org/2000/svg">
<rect width="17" height="17" fill="white"/>
<g id="Components">
<path d="M-2382 -1517C-2382 -1518.1 -2381.1 -1519 -2380 -1519H716C717.104 -1519 718 -1518.1 718 -1517V565C718 566.104 717.104 567 716 567H-2380C-2381.1 567 -2382 566.104 -2382 565V-1517Z" fill="#E5E5E5"/>
<g id=".li-item">
<g id="Property 1=Variant3">
<rect id="Rectangle 10" x="-164" y="-11" width="195" height="37" fill="#FFD15B"/>
<g id="Group 11">
<circle id="Ellipse 5" cx="8.5" cy="8.5" r="8.5" fill="black"/>
<path id="Vector" d="M11 11L8.5 8.5M8.5 8.5L6 6M8.5 8.5L11 6M8.5 8.5L6 11" stroke="#FFD15B" stroke-linecap="round" stroke-linejoin="round"/>
</g>
</g>
<rect x="-167.5" y="-99.5" width="255" height="136" rx="4.5" stroke="#9747FF" stroke-dasharray="10 5"/>
</g>
<path d="M-2380 -1518H716V-1520H-2380V-1518ZM717 -1517V565H719V-1517H717ZM716 566H-2380V568H716V566ZM-2381 565V-1517H-2383V565H-2381ZM-2380 566C-2380.55 566 -2381 565.552 -2381 565H-2383C-2383 566.657 -2381.66 568 -2380 568V566ZM717 565C717 565.552 716.552 566 716 566V568C717.657 568 719 566.657 719 565H717ZM716 -1518C716.552 -1518 717 -1517.55 717 -1517H719C719 -1518.66 717.657 -1520 716 -1520V-1518ZM-2380 -1520C-2381.66 -1520 -2383 -1518.66 -2383 -1517H-2381C-2381 -1517.55 -2380.55 -1518 -2380 -1518V-1520Z" fill="black" fill-opacity="0.1"/>
</g>
</svg>
